<svg xmlns="http://www.w3.org/2000/svg" xmlns:svg="http://www.w3.org/2000/svg" id="svg2" width="64" height="64" version="1.1"><metadata id="metadata7"/><g id="layer1" transform="translate(0,-988.4)"><path style="fill:#fff;fill-opacity:1;stroke:none" id="path2986" d="m 56.48,31.74 a 25.1,25.1 0 1 1 -50.2,0 25.1,25.1 0 1 1 50.2,0 z" transform="matrix(1.275,0,0,1.28,-8.004,979.6)"/><path style="fill:none;stroke:#333;stroke-width:2.3741;stroke-linecap:round;stroke-linejoin:miter;stroke-miterlimit:4;stroke-opacity:1;stroke-dasharray:none" id="path3787" d="m 53.18,999.6 c 0,0 -32.36,31.4 -35.52,34.4 -4.4,5 -10.649,-1 -5.92,-6"/><path style="fill:#0074d9;fill-opacity:1;stroke:none" id="path2996" d="m 10.04,1002 c 9.52,-12.6 30.06,-13.8 41.47,-1 11.42,13 11.41,30 -0.18,42 -0.8,-8 -7.41,-11 -12.35,-11 -1.21,-10 -8.39,-17 -16.59,-18 0.17,-6 -6.42,-13 -12.35,-12 z"/><path style="fill:#7fdbff;fill-opacity:1;stroke:none" id="path3766" d="m 22.39,1014 c 7.71,-8 16.56,-13 29.2,-13 -0.31,13 -4.5,24 -12.61,31 -1.98,-9 -9.64,-17 -16.59,-18 z"/><path style="fill:none;stroke:#333;stroke-width:2.6088;stroke-linecap:round;stroke-linejoin:round;stroke-miterlimit:4;stroke-opacity:1;stroke-dasharray:none" id="path3789" d="m 32.6,1037 c -4.24,-8 -10.07,-2 -6.18,2 3.92,4 -2.07,11 -6.92,2"/></g></svg>